<?xml version="1.0" encoding="UTF-8"?>
<svg xmlns="http://www.w3.org/2000/svg" viewBox="-28 -68 172 140" width="688" height="560">
<rect x="-28" y="-68" width="172" height="140" fill="white"/>
<g stroke="#0050c8" stroke-width="1" fill="none" stroke-linecap="round">
<polyline points="0,-20 0,-40 40,-40"/>
<polyline points="80,-40 120,-40 120,-20"/>
<polyline points="120,20 120,40 0,40 0,20"/>
</g>
<g fill="#0050c8">
<circle cx="30" cy="40" r="1.5"/>
</g>
<g stroke="#1a1a1a" stroke-width="1" fill="none" stroke-linecap="round" stroke-linejoin="round">
<line x1="0" y1="-20" x2="0" y2="-2"/>
<line x1="0" y1="2" x2="0" y2="20"/>
<line x1="-8" y1="-2" x2="8" y2="-2"/>
<line x1="-4" y1="2" x2="4" y2="2"/>
<text x="7" y="-5.25" fill="#1a1a1a" stroke="none" font-family="sans-serif" font-size="5" text-anchor="middle">+</text>
<line x1="40" y1="-40" x2="50" y2="-40"/>
<line x1="70" y1="-40" x2="80" y2="-40"/>
<circle cx="50" cy="-40" r="1.5" fill="none"/>
<circle cx="70" cy="-40" r="1.5" fill="none"/>
<line x1="51.3" y1="-40.8" x2="68" y2="-48"/>
<line x1="120" y1="-20" x2="120" y2="-10"/>
<line x1="120" y1="10" x2="120" y2="20"/>
<polygon points="124,-10 124,10 116,10 116,-10" fill="none"/>
<line x1="30" y1="40" x2="30" y2="46"/>
<line x1="22" y1="46" x2="38" y2="46"/>
<line x1="25" y1="49" x2="35" y2="49"/>
<line x1="28" y1="52" x2="32" y2="52"/>
</g>
<g fill="#606060" font-family="sans-serif" font-size="5" text-anchor="middle">
<text x="0" y="-24">BT1</text>
<text x="0" y="28">9V</text>
<text x="60" y="-52">S1</text>
<text x="120" y="-24">R1</text>
<text x="120" y="28">10k</text>
</g>
</svg>
